# xmcd
#
# Track frame offsets:
#	150
#	19743
#	52089
#	69766
#	90316
#	113731
#	130505
#	147714
#	165859
#	196607
#	226101
#
# Disc length: 3244 seconds
#
# Revision: 1
# Processed by: cddbd v1.5.1PL0 Copyright (c) Steve Scherf et al.
# Submitted via: EasyCDDAExtractor 6.0.0.1
#
DISCID=7e0caa0b
DTITLE=Hush - Hometown
DYEAR=1998
DGENRE=Blues
TTITLE0=Game of Love
TTITLE1=My Hometown
TTITLE2=Girl of Many Words
TTITLE3=New York City
TTITLE4=Neighbor, Neighbor
TTITLE5=Learn to Treat Me Right
TTITLE6=Grab Your Life
TTITLE7=I'm About to Leave You
TTITLE8=Breaking Up Somebody's Home
TTITLE9=That's Why I Cry
TTITLE10=Statesboro Blues
EXTD=
EXTT0=
EXTT1=
EXTT2=
EXTT3=
EXTT4=
EXTT5=
EXTT6=
EXTT7=
EXTT8=
EXTT9=
EXTT10=
PLAYORDER=
